<?xml version="1.0" encoding="utf-8" ?><svg xmlns="http://www.w3.org/2000/svg" xmlns:xlink="http://www.w3.org/1999/xlink" width="512" height="512" viewBox="0 0 512 512"><path fill="white" d="M0 252.713L0.234593 252.277C1.04485 250.74 1.89537 247.929 2.84308 246.568C5.19635 243.189 8.06349 239.62 10.648 236.421C17.3716 228.074 24.389 219.967 31.6872 212.117C75.784 164.524 127.22 124.75 189.276 103.727C305.456 64.3692 416.552 138.405 490.392 223.474C494.761 228.484 499.023 233.587 503.176 238.777C505.285 241.416 507.568 244.276 509.425 247.102C510.518 248.766 511.131 251.413 512 253.043L512 258.976L511.797 259.402C511.157 260.757 510.339 263.447 509.621 264.546C507.157 268.317 504.086 272.045 501.245 275.55C495.413 282.771 489.361 289.813 483.099 296.666C439.84 343.888 390.928 382.827 330.48 405.627C213.746 449.657 103.605 379.538 26.9931 294.632C21.2039 288.245 15.6037 281.69 10.1996 274.974C7.66147 271.82 5.16954 268.664 2.80934 265.369C1.51252 263.558 0.895179 260.746 0 259.272L0 252.713ZM38.4479 256.077C91.0865 318.951 174.575 388.433 261.187 385.239C319.356 383.337 374.442 350.677 417.41 313.374C431.634 300.971 445.164 287.793 457.939 273.903C461.792 269.724 465.557 265.465 469.23 261.127C470.269 259.9 472.741 257.119 473.548 255.909C470.007 251.921 466.622 247.759 463.061 243.735C456.485 236.377 449.721 229.189 442.775 222.179C396.436 175.802 333.096 130.941 265.749 127.01C260.89 126.726 255.445 126.788 250.554 126.87C176.366 129.186 106.961 181.534 58.0963 233.593C52.7294 239.31 42.9785 249.817 38.4479 256.077Z"/><path fill="white" d="M250.382 154.887C306.212 151.801 353.978 194.549 357.081 250.378C360.185 306.208 317.452 353.986 261.623 357.107C205.771 360.23 157.966 317.474 154.861 261.62C151.756 205.766 194.527 157.975 250.382 154.887ZM260.375 323.316C297.543 320.881 325.703 288.783 323.28 251.614C320.858 214.445 288.768 186.275 251.599 188.686C214.412 191.098 186.226 223.205 188.65 260.39C191.074 297.576 223.19 325.752 260.375 323.316Z"/></svg>