<?xml version="1.0" encoding="utf-8" ?><svg xmlns="http://www.w3.org/2000/svg" xmlns:xlink="http://www.w3.org/1999/xlink" width="512" height="512" viewBox="0 0 512 512"><path fill="white" d="M348.364 231.694L348.713 231.943C349.258 233.129 350.089 237.542 350.37 239.067C352.908 252.639 352.421 266.604 348.943 279.967C342.478 304.727 326.449 325.909 304.377 338.858C288.717 348.159 270.692 352.707 252.494 351.949C248.541 351.811 241.537 351.14 237.686 350.136C235.462 349.63 233.443 349.162 231.182 348.81C237.141 342.628 243.176 336.52 249.283 330.485C252.647 327.119 256.803 322.707 260.3 319.623C266.171 318.5 269.243 318.626 275.69 316.541C294.711 310.242 309.712 295.442 316.267 276.509C317.104 274.024 317.628 271.697 318.177 269.328C318.635 267.353 319.282 260.927 320.302 259.748C322.775 256.89 326.908 252.714 329.661 250.105C335.744 244.34 342.144 237.146 348.364 231.694Z"/><path fill="white" d="M369.059 120.349C372.819 116.119 377.73 111.431 381.779 107.378L403.424 85.7374L414.874 74.3399C417.321 71.8861 419.536 69.2565 422.327 67.1882C428.443 62.6556 437.23 63.126 442.857 68.2668C446.056 71.2349 447.896 75.3865 447.946 79.7501C448.076 86.4968 444.637 89.9927 440.23 94.4035L203.274 331.336L127.108 407.511L102.896 431.703C100.809 433.79 98.7384 435.937 96.6215 438.011C91.5092 443.018 87.8111 448.085 79.9581 447.996C66.9267 447.849 59.5513 433.485 66.9381 422.817C68.9187 419.957 71.6192 417.516 74.0827 415.064L83.8091 405.377C93.2454 395.94 103.651 385.032 113.304 375.987C110.154 373.752 106.677 371.697 103.423 369.569C98.4514 366.304 93.5771 362.894 88.8065 359.342C54.7276 333.92 24.8346 301.23 2.63532 265.01C1.5524 263.243 0.977802 260.825 0 259.253L0 252.739L0.237355 252.307C1.49973 249.962 2.25648 247.484 3.74267 245.103C42.9398 182.308 103.084 130.665 174.289 108.329C225.075 92.5384 279.356 91.8479 330.528 106.341C338.905 108.745 347.163 111.542 355.276 114.723C358.661 116.07 366.028 119.475 369.059 120.349ZM137.571 351.926C140.13 348.631 145.391 343.9 148.418 340.724L177.765 311.454C162.757 289.839 156.892 264.849 161.549 238.827C166.1 213.823 180.359 191.635 201.213 177.107C221.929 162.733 247.475 157.102 272.314 161.433C282.901 163.279 293.096 166.91 302.467 172.17C305.607 173.92 308.639 176.075 311.663 177.721C315.408 173.529 320.227 168.934 324.253 164.908C330.783 158.258 337.409 151.704 344.132 145.25C340.001 143.285 333.943 141.236 329.56 139.788C305.265 131.84 279.838 127.899 254.276 128.119C180.831 129.334 120.3 160.152 69.6376 212.552C59.6091 223.078 50.2811 234.25 41.7134 245.995C40.0562 248.275 36.1665 253.613 34.8924 256.031C57.5516 289.691 86.4853 318.668 120.111 341.378C124.337 344.175 133.093 349.948 137.571 351.926ZM201.128 288.309C204.524 284.458 209.594 279.476 213.331 275.82L288.112 201.103C277.807 195.004 267.142 192.009 255.153 192.112C237.047 192.689 221.53 199.226 209.069 212.582C197.461 225.03 191.341 241.62 192.083 258.624C192.531 269.339 195.742 279.103 201.128 288.309Z"/><path fill="white" d="M425.399 154.541C428.903 156.54 436.542 163.079 439.819 165.869C462.53 185.247 482.637 207.482 499.639 232.022C503.049 236.982 506.511 242.188 509.54 247.403C510.339 248.778 511.274 251.459 512 253.049L512 258.969C510.966 260.805 510.465 263.157 509.078 265.417C477.451 316.94 429.843 362.215 375.42 388.648C324.777 413.367 267.689 421.687 212.097 412.451C200.761 410.572 186.696 407.512 175.881 403.772C177.854 402.328 181.049 398.682 182.976 396.855C189.243 390.917 195.788 383.401 202.176 377.788C205.381 378.16 209.831 379.234 213.113 379.884C217.725 380.776 222.366 381.511 227.028 382.089C255.609 385.647 284.599 383.985 312.586 377.182C369.744 363.151 419.161 328.019 456.659 283.272C462.751 276.001 472.186 264.101 477.083 256.019C475.096 252.374 467.344 242.258 464.738 238.873C446.322 214.948 426.167 195.819 402.267 177.607C409.837 170.376 417.686 161.446 425.399 154.541Z"/></svg>