<svg class="svg-icon" style="width: 1em;height: 1em;vertical-align: middle;fill: currentColor;overflow: hidden;" viewBox="0 0 1024 1024" version="1.1" xmlns="http://www.w3.org/2000/svg"><path d="M512 597.333333c70.826667 0 127.573333-57.173333 127.573333-128L640 213.333333c0-70.826667-57.173333-128-128-128S384 142.506667 384 213.333333v256c0 70.826667 57.173333 128 128 128z m-51.2-388.266666c0-28.16 23.04-51.2 51.2-51.2 28.16 0 51.2 23.04 51.2 51.2l-0.426667 264.533333c0 28.16-22.613333 51.2-50.773333 51.2-28.16 0-51.2-23.04-51.2-51.2V209.066667z m277.333333 260.266666c0 128-108.373333 217.6-226.133333 217.6S285.866667 597.333333 285.866667 469.333333H213.333333c0 145.493333 116.053333 265.813333 256 286.72V896h85.333334v-139.946667c139.946667-20.48 256-140.8 256-286.72h-72.533334z"  /></svg>