<svg width="27" height="27" viewBox="0 0 27 27" fill="none" xmlns="http://www.w3.org/2000/svg">
    <path
        d="M7.71428 15.4286C8.77938 15.4286 9.64285 14.565 9.64285 13.5C9.64285 12.435 8.77938 11.5714 7.71428 11.5714C6.64917 11.5714 5.78571 12.435 5.78571 13.5C5.78571 14.565 6.64917 15.4286 7.71428 15.4286Z"
        fill="currentColor" />
    <path
        d="M13.5 15.4286C14.5651 15.4286 15.4286 14.565 15.4286 13.5C15.4286 12.435 14.5651 11.5714 13.5 11.5714C12.4349 11.5714 11.5714 12.435 11.5714 13.5C11.5714 14.565 12.4349 15.4286 13.5 15.4286Z"
        fill="currentColor" />
    <path
        d="M21.2143 13.5C21.2143 14.565 20.3508 15.4286 19.2857 15.4286C18.2206 15.4286 17.3571 14.565 17.3571 13.5C17.3571 12.435 18.2206 11.5714 19.2857 11.5714C20.3508 11.5714 21.2143 12.435 21.2143 13.5Z"
        fill="currentColor" />
</svg>