<svg class="svg-icon" style="width: 1em; height: 1em;vertical-align: middle;fill: currentColor;overflow: hidden;" viewBox="0 0 1024 1024" version="1.1" xmlns="http://www.w3.org/2000/svg"><path d="M512 597.333333c70.613333 0 127.573333-57.386667 127.573333-128L640 213.333333c0-70.826667-57.173333-128-128-128-70.613333 0-128 57.173333-128 128v256c0 70.613333 57.386667 128 128 128z m226.133333-128c0 128-108.16 217.6-226.133333 217.6-117.76 0-226.133333-89.6-226.133333-217.6H213.333333c0 145.706667 116.053333 266.026667 256 286.72V896h85.333334v-139.946667c139.946667-20.693333 256-141.013333 256-286.72h-72.533334z" fill="" /></svg>