<svg width="35" height="15" viewBox="0 0 35 15" fill="none" xmlns="http://www.w3.org/2000/svg">
    <path
        d="M4.0466 11.9637L1.56726 9.22819C1.33606 8.97518 1.16025 8.67668 1.05109 8.35179C0.941934 8.02691 0.901834 7.6828 0.933358 7.34152C0.964882 7.00024 1.06734 6.66931 1.23416 6.36991C1.40098 6.07052 1.62849 5.80927 1.90213 5.60289C4.98428 3.36464 8.54848 1.88057 12.3083 1.26992C15.7803 0.673029 19.3412 0.847912 22.738 1.78215C26.435 2.76419 29.8487 4.60328 32.7026 7.15044C32.9539 7.38194 33.1543 7.66323 33.2909 7.97641C33.4276 8.28958 33.4975 8.62778 33.4963 8.96948C33.4951 9.31117 33.4228 9.64887 33.2839 9.96107C33.145 10.2733 32.9427 10.5531 32.6897 10.7828L29.9542 13.2622C29.5157 13.6676 28.9447 13.8998 28.3476 13.9153C27.7505 13.9309 27.1682 13.7288 26.7091 13.3468C25.8002 12.576 24.807 11.9105 23.7485 11.3631C23.33 11.1479 22.982 10.8173 22.7457 10.4104C22.5093 10.0035 22.3946 9.53733 22.415 9.06721L22.5234 6.85961C19.1564 5.75332 15.5531 5.57635 12.0938 6.34738L11.9854 8.55498C11.9597 9.02484 11.7998 9.47748 11.5247 9.85927C11.2497 10.2411 10.8709 10.536 10.4334 10.7091C9.3263 11.1502 8.27268 11.7152 7.29263 12.3932C6.79306 12.7321 6.18633 12.8757 5.58783 12.7965C4.98934 12.7173 4.44082 12.4209 4.0466 11.9637Z"
        stroke="currentColor" stroke-width="1.84594" stroke-linecap="round" stroke-linejoin="round" />
</svg>