<svg class="svg-icon" style="width: 1em;height: 1em;vertical-align: middle;fill: currentColor;overflow: hidden;" viewBox="0 0 1024 1024" version="1.1" xmlns="http://www.w3.org/2000/svg"><path d="M411.904 366.336c0 89.856 39.168 166.656 94.208 166.656 54.784 0 94.208-76.8 94.208-166.656 0-49.408-38.912-84.736-94.208-84.736s-94.208 35.328-94.208 84.736m-51.2 0c0-80.896 65.024-135.936 145.408-135.936s145.408 55.04 145.408 135.936-35.84 217.856-145.408 217.856c-109.568 0-145.408-136.704-145.408-217.856M780.8 687.872c0 84.224-120.32 113.92-268.8 113.92S243.2 772.096 243.2 687.872c0-59.392 59.904-110.592 147.456-135.936 13.568 17.152 29.952 31.232 48.384 41.216-85.76 15.616-144.64 56.576-144.64 94.72 0 34.56 76.032 62.72 217.6 62.72 141.568 0 217.6-28.16 217.6-62.72 0-39.424-62.72-81.92-153.344-96.256 18.176-10.496 34.048-24.832 47.36-42.24 92.672 24.064 157.184 76.8 157.184 138.496"  /></svg>