<svg class="svg-icon" style="width: 1em;height: 1em;vertical-align: middle;fill: currentColor;overflow: hidden;" viewBox="0 0 1024 1024" version="1.1" xmlns="http://www.w3.org/2000/svg"><path d="M929.28 94.72a32 32 0 0 1 3.114667 41.642667l-3.114667 3.584-96.085333 96.042666a32 32 0 0 1 26.154666 15.36C912.085333 337.92 938.666667 425.386667 938.666667 513.28c0 87.893333-26.624 175.36-79.36 261.973333a32 32 0 1 1-54.656-33.28c46.848-76.970667 70.058667-153.088 70.058666-228.693333 0-75.648-23.210667-151.765333-70.058666-228.693333a31.872 31.872 0 0 1-4.693334-15.445334L640 429.226667v413.525333a53.333333 53.333333 0 0 1-87.808 40.704l-198.4-168.021333L139.946667 929.28a32 32 0 0 1-41.642667 3.114667l-3.584-3.114667a32 32 0 0 1-3.114667-41.642667l3.114667-3.584 789.333333-789.333333a32 32 0 0 1 45.226667 0z m-353.28 398.506667l-176.810667 176.810666 176.810667 149.674667V493.226667z m51.370667-346.325334c8.149333 9.6 12.629333 21.802667 12.629333 34.432v66.730667l-64 64V204.330667L363.733333 384H181.333333a32 32 0 0 0-32 32v192c0 17.664 14.336 32 32 32l66.773334-0.042667-64 64-2.773334 0.042667A96 96 0 0 1 85.333333 608v-192A96 96 0 0 1 181.333333 320h158.933334l211.968-179.370667a53.333333 53.333333 0 0 1 75.136 6.272z m146.346666 232.405334c24.490667 40.106667 36.778667 84.992 36.778667 133.973333 0 49.066667-12.288 93.909333-36.778667 134.016a32 32 0 0 1-54.613333-33.322667c18.261333-29.952 27.392-63.274667 27.392-100.693333 0-37.376-9.130667-70.698667-27.392-100.650667a32 32 0 0 1 54.613333-33.322666z"  /></svg>